<svg width="20" height="19" viewBox="0 0 20 19" fill="none" xmlns="http://www.w3.org/2000/svg">
<path d="M19.12 7.37999C19.0781 7.24713 18.9996 7.12878 18.8935 7.03856C18.7873 6.94834 18.6579 6.88991 18.52 6.86999L13.1 6.07999L10.67 1.16999C10.6008 1.05397 10.5027 0.957888 10.3853 0.891167C10.2678 0.824446 10.1351 0.789368 9.99999 0.789368C9.86491 0.789368 9.73215 0.824446 9.6147 0.891167C9.49726 0.957888 9.39915 1.05397 9.32999 1.16999L6.89999 6.07999L1.47999 6.86999C1.34211 6.88991 1.21266 6.94834 1.10652 7.03856C1.00038 7.12878 0.921856 7.24713 0.879989 7.37999C0.835293 7.51237 0.828462 7.65459 0.860265 7.79064C0.892069 7.92669 0.961242 8.05115 1.05999 8.14999L4.99999 11.97L4.06999 17.37C4.04642 17.509 4.06199 17.6519 4.11497 17.7826C4.16796 17.9133 4.25625 18.0266 4.36999 18.11C4.48391 18.1912 4.61825 18.2389 4.75785 18.2477C4.89746 18.2565 5.03675 18.2262 5.15999 18.16L9.99999 15.61L14.85 18.16C14.9573 18.2189 15.0776 18.2498 15.2 18.25C15.3573 18.2482 15.5105 18.1994 15.64 18.11C15.7537 18.0266 15.842 17.9133 15.895 17.7826C15.948 17.6519 15.9636 17.509 15.94 17.37L15 11.97L18.93 8.14999C19.0305 8.05223 19.1015 7.92826 19.1351 7.79216C19.1687 7.65606 19.1634 7.51327 19.12 7.37999Z" fill="#EAB308"/>
</svg>
